<svg width="130" height="130" viewBox="0 0 130 130" fill="none" xmlns="http://www.w3.org/2000/svg">
<path d="M65 8.125C53.1524 8.13898 41.7941 12.8516 33.4166 21.2291C25.0391 29.6066 20.3265 40.9649 20.3125 52.8125C20.2983 62.4943 23.4608 71.9135 29.315 79.625C29.315 79.625 30.5337 81.2297 30.7328 81.4613L65 121.875L99.2834 81.4409C99.4622 81.2256 100.685 79.625 100.685 79.625L100.689 79.6128C106.54 71.9047 109.701 62.4899 109.687 52.8125C109.674 40.9649 104.961 29.6066 96.5834 21.2291C88.2059 12.8516 76.8476 8.13898 65 8.125ZM65 69.0625C61.786 69.0625 58.6443 68.1095 55.972 66.3239C53.2997 64.5383 51.2169 62.0004 49.9869 59.0311C48.757 56.0618 48.4352 52.7945 49.0622 49.6423C49.6892 46.4901 51.2369 43.5946 53.5095 41.322C55.7821 39.0494 58.6776 37.5017 61.8298 36.8747C64.982 36.2477 68.2493 36.5695 71.2186 37.7995C74.1879 39.0294 76.7258 41.1122 78.5114 43.7845C80.2969 46.4568 81.25 49.5986 81.25 52.8125C81.2446 57.1206 79.5308 61.2507 76.4845 64.297C73.4382 67.3433 69.3081 69.0571 65 69.0625Z" fill="#85B6FF"/>
</svg>
