<svg width="124" height="124" viewBox="0 0 124 124" fill="none" xmlns="http://www.w3.org/2000/svg">
<path d="M93.8839 30.1403C89.7589 26.0015 84.8634 22.7104 79.4737 20.4528C73.9458 18.1303 68.008 16.9402 62.012 16.9532H61.8061C49.7331 17.0017 38.435 21.7243 29.9827 30.2614C21.5182 38.7985 16.9046 50.1329 16.953 62.206C16.9893 69.5079 18.8057 76.7614 22.2206 83.1673L22.7655 84.1845V101.234H39.8155L40.8327 101.779C47.2386 105.194 54.4921 107.011 61.794 107.047H61.9999C73.9882 107.047 85.2499 102.421 93.7386 94.0173C102.264 85.565 106.998 74.2669 107.071 62.206C107.095 56.0786 105.921 50.145 103.571 44.5505C101.312 39.1616 98.0214 34.2664 93.8839 30.1403ZM37.7811 67.8126C36.2601 67.7816 34.8119 67.1555 33.7471 66.0689C32.6824 64.9822 32.0861 63.5215 32.0861 62.0001C32.0861 60.4788 32.6824 59.018 33.7471 57.9314C34.8119 56.8447 36.2601 56.2187 37.7811 56.1876C39.3022 56.2187 40.7504 56.8447 41.8151 57.9314C42.8799 59.018 43.4762 60.4788 43.4762 62.0001C43.4762 63.5215 42.8799 64.9822 41.8151 66.0689C40.7504 67.1555 39.3022 67.7816 37.7811 67.8126ZM61.9999 67.8126C60.4789 67.7816 59.0306 67.1555 57.9659 66.0689C56.9012 64.9822 56.3048 63.5215 56.3048 62.0001C56.3048 60.4788 56.9012 59.018 57.9659 57.9314C59.0306 56.8447 60.4789 56.2187 61.9999 56.1876C63.5209 56.2187 64.9692 56.8447 66.0339 57.9314C67.0986 59.018 67.6949 60.4788 67.6949 62.0001C67.6949 63.5215 67.0986 64.9822 66.0339 66.0689C64.9692 67.1555 63.5209 67.7816 61.9999 67.8126ZM86.2186 67.8126C84.6976 67.7816 83.2494 67.1555 82.1846 66.0689C81.1199 64.9822 80.5236 63.5215 80.5236 62.0001C80.5236 60.4788 81.1199 59.018 82.1846 57.9314C83.2494 56.8447 84.6976 56.2187 86.2186 56.1876C87.7397 56.2187 89.1879 56.8447 90.2526 57.9314C91.3174 59.018 91.9137 60.4788 91.9137 62.0001C91.9137 63.5215 91.3174 64.9822 90.2526 66.0689C89.1879 67.1555 87.7397 67.7816 86.2186 67.8126Z" fill="#699BF7" fill-opacity="0.15"/>
<path d="M80.4062 62C80.4062 63.5416 81.0186 65.02 82.1087 66.1101C83.1987 67.2001 84.6772 67.8125 86.2188 67.8125C87.7603 67.8125 89.2388 67.2001 90.3288 66.1101C91.4189 65.02 92.0312 63.5416 92.0312 62C92.0312 60.4584 91.4189 58.98 90.3288 57.8899C89.2388 56.7999 87.7603 56.1875 86.2188 56.1875C84.6772 56.1875 83.1987 56.7999 82.1087 57.8899C81.0186 58.98 80.4062 60.4584 80.4062 62ZM31.9688 62C31.9688 63.5416 32.5811 65.02 33.6712 66.1101C34.7612 67.2001 36.2397 67.8125 37.7812 67.8125C39.3228 67.8125 40.8013 67.2001 41.8913 66.1101C42.9814 65.02 43.5938 63.5416 43.5938 62C43.5938 60.4584 42.9814 58.98 41.8913 57.8899C40.8013 56.7999 39.3228 56.1875 37.7812 56.1875C36.2397 56.1875 34.7612 56.7999 33.6712 57.8899C32.5811 58.98 31.9688 60.4584 31.9688 62Z" fill="#797979"/>
<path d="M112.036 40.9781C109.299 34.4754 105.376 28.6387 100.375 23.6254C95.4084 18.6411 89.5129 14.6792 83.0218 11.9641C76.3617 9.1668 69.2898 7.75 62 7.75H61.7578C54.4195 7.78633 47.3113 9.23945 40.6269 12.0973C34.1915 14.8403 28.3512 18.8092 23.4316 23.7828C18.4789 28.784 14.5918 34.5965 11.9035 41.075C9.11831 47.7836 7.71363 54.916 7.74995 62.2543C7.79104 70.6639 9.7806 78.9496 13.5625 86.4609V104.867C13.5625 106.345 14.1493 107.761 15.194 108.806C16.2386 109.851 17.6554 110.438 19.1328 110.438H37.5511C45.0625 114.219 53.3482 116.209 61.7578 116.25H62.0121C69.2656 116.25 76.3011 114.845 82.925 112.096C89.3832 109.414 95.2567 105.498 100.217 100.568C105.218 95.6156 109.154 89.8273 111.903 83.373C114.761 76.6887 116.214 69.5805 116.25 62.2422C116.286 54.8676 114.857 47.7109 112.036 40.9781ZM93.7386 94.0172C85.25 102.421 73.9882 107.047 62 107.047H61.7941C54.4921 107.011 47.2386 105.194 40.8328 101.779L39.8156 101.234H22.7656V84.1844L22.2207 83.1672C18.8058 76.7613 16.9894 69.5078 16.9531 62.2059C16.9046 50.1328 21.5183 38.7984 29.9828 30.2613C38.4351 21.7242 49.7332 17.0016 61.8062 16.9531H62.0121C68.0668 16.9531 73.9398 18.1277 79.4738 20.4527C84.8746 22.7172 89.7183 25.9746 93.8839 30.1402C98.0375 34.2937 101.307 39.1496 103.571 44.5504C105.921 50.1449 107.095 56.0785 107.071 62.2059C106.998 74.2668 102.264 85.5648 93.7386 94.0172Z" fill="#797979"/>
<path d="M56.1875 62C56.1875 63.5416 56.7999 65.02 57.8899 66.1101C58.98 67.2001 60.4584 67.8125 62 67.8125C63.5416 67.8125 65.02 67.2001 66.1101 66.1101C67.2001 65.02 67.8125 63.5416 67.8125 62C67.8125 60.4584 67.2001 58.98 66.1101 57.8899C65.02 56.7999 63.5416 56.1875 62 56.1875C60.4584 56.1875 58.98 56.7999 57.8899 57.8899C56.7999 58.98 56.1875 60.4584 56.1875 62Z" fill="#797979"/>
</svg>
