<svg width="75" height="88" viewBox="0 0 75 88" fill="none" xmlns="http://www.w3.org/2000/svg">
<path d="M75 70.8333V75H0V70.8333L8.33333 62.5V37.5C8.33333 24.5833 16.7917 13.2083 29.1667 9.54167V8.33333C29.1667 6.1232 30.0446 4.00358 31.6074 2.44078C33.1702 0.877973 35.2899 0 37.5 0C39.7101 0 41.8298 0.877973 43.3926 2.44078C44.9554 4.00358 45.8333 6.1232 45.8333 8.33333V9.54167C58.2083 13.2083 66.6667 24.5833 66.6667 37.5V62.5L75 70.8333ZM45.8333 79.1667C45.8333 81.3768 44.9554 83.4964 43.3926 85.0592C41.8298 86.622 39.7101 87.5 37.5 87.5C35.2899 87.5 33.1702 86.622 31.6074 85.0592C30.0446 83.4964 29.1667 81.3768 29.1667 79.1667" fill="#797979"/>
</svg>
