<svg width="50" height="50" viewBox="0 0 50 50" fill="none" xmlns="http://www.w3.org/2000/svg">
<path d="M25.0003 4.16699C22.2645 4.16699 19.5554 4.70586 17.0278 5.75284C14.5001 6.79981 12.2035 8.33438 10.2689 10.2689C6.36193 14.1759 4.16699 19.475 4.16699 25.0003C4.16699 30.5257 6.36193 35.8247 10.2689 39.7317C12.2035 41.6663 14.5001 43.2008 17.0278 44.2478C19.5554 45.2948 22.2645 45.8337 25.0003 45.8337C30.5257 45.8337 35.8247 43.6387 39.7317 39.7317C43.6387 35.8247 45.8337 30.5257 45.8337 25.0003C45.8337 22.2645 45.2948 19.5554 44.2478 17.0278C43.2008 14.5001 41.6663 12.2035 39.7317 10.2689C37.7972 8.33438 35.5005 6.79981 32.9729 5.75284C30.4453 4.70586 27.7362 4.16699 25.0003 4.16699ZM33.7503 33.7503L22.917 27.0837V14.5837H26.042V25.417L35.417 31.042L33.7503 33.7503Z" fill="#85B6FF"/>
</svg>
