<svg width="34" height="40" viewBox="0 0 34 40" fill="none" xmlns="http://www.w3.org/2000/svg">
<path d="M27.1606 22.9985C21.8942 16.3545 15.6752 15.4649 13.6836 13.0797C12.5972 11.7808 11.9596 10.4662 12.2036 8.83665C12.4634 7.1048 14.4708 5.90824 16.0295 5.61698C17.8479 5.27061 22.1854 5.45166 25.8302 8.92325C26.6961 9.74194 26.3813 11.0172 26.3576 12.1587C26.2947 14.6069 29.7977 16.9843 32.6317 14.9375C35.4735 12.8829 33.2929 8.30923 31.4587 6.0893C30.0733 4.41255 25.0509 0.720542 18.8083 0.138008C17.0528 -0.0273059 9.99158 -1.07429 5.91385 6.67971C4.74091 8.9075 4.30794 14.292 10.4482 18.8421C11.7313 19.7946 18.3911 23.1796 20.241 25.3759C23.445 29.1781 21.2487 32.5237 18.7453 32.9646C11.9202 34.1611 8.05506 30.4691 7.3387 28.446C6.82701 27.0054 7.36231 25.4467 6.70106 24.0927C6.02406 22.6994 4.63857 22.1483 3.17437 22.6128C-1.6276 24.14 -0.100419 29.3906 2.02504 32.2797C4.30007 35.3734 7.09466 37.2391 10.2356 38.2625C21.9571 42.0804 27.5936 36.0504 28.5776 31.6342C29.3018 28.3988 29.2231 25.5963 27.1606 22.9985Z" fill="#6B4B46"/>
</svg>
