<svg width="50" height="50" viewBox="0 0 50 50" fill="none" xmlns="http://www.w3.org/2000/svg">
<path d="M25 3.125C29.5568 3.13038 33.9253 4.94292 37.1475 8.16504C40.3696 11.3872 42.1821 15.7557 42.1875 20.3125C42.193 24.0363 40.9766 27.659 38.725 30.625C38.725 30.625 38.2562 31.2422 38.1797 31.3312L25 46.875L11.8141 31.3234C11.7453 31.2406 11.275 30.625 11.275 30.625L11.2734 30.6203C9.02296 27.6556 7.80716 24.0346 7.8125 20.3125C7.81787 15.7557 9.63042 11.3872 12.8525 8.16504C16.0747 4.94292 20.4432 3.13038 25 3.125ZM25 26.5625C26.2361 26.5625 27.4445 26.1959 28.4723 25.5092C29.5001 24.8224 30.3012 23.8463 30.7742 22.7043C31.2473 21.5622 31.3711 20.3056 31.1299 19.0932C30.8887 17.8808 30.2935 16.7672 29.4194 15.8931C28.5453 15.019 27.4317 14.4237 26.2193 14.1826C25.0069 13.9414 23.7503 14.0652 22.6082 14.5383C21.4662 15.0113 20.4901 15.8124 19.8033 16.8402C19.1166 17.868 18.75 19.0764 18.75 20.3125C18.7521 21.9695 19.4112 23.558 20.5829 24.7296C21.7545 25.9013 23.343 26.5604 25 26.5625Z" fill="#FFD233"/>
</svg>
