<svg width="122" height="122" viewBox="0 0 122 122" fill="none" xmlns="http://www.w3.org/2000/svg">
<path d="M81.1667 40.4167L96.4167 55.6667L111.667 40.4167M48.125 50.5833C50.4614 50.5833 52.775 50.1231 54.9336 49.229C57.0922 48.3349 59.0535 47.0244 60.7056 45.3723C62.3577 43.7202 63.6682 41.7588 64.5624 39.6002C65.4565 37.4417 65.9167 35.1281 65.9167 32.7917C65.9167 30.4552 65.4565 28.1417 64.5624 25.9831C63.6682 23.8245 62.3577 21.8632 60.7056 20.2111C59.0535 18.559 57.0922 17.2484 54.9336 16.3543C52.775 15.4602 50.4614 15 48.125 15C43.4064 15 38.881 16.8745 35.5444 20.2111C32.2078 23.5476 30.3333 28.073 30.3333 32.7917C30.3333 37.5103 32.2078 42.0357 35.5444 45.3723C38.881 48.7089 43.4064 50.5833 48.125 50.5833ZM10 103.45V106.5H86.25V103.45C86.25 92.0633 86.25 86.37 84.0337 82.0187C82.0843 78.1929 78.9738 75.0824 75.148 73.133C70.7967 70.9167 65.1033 70.9167 53.7167 70.9167H42.5333C31.1467 70.9167 25.4533 70.9167 21.102 73.133C17.2762 75.0824 14.1657 78.1929 12.2163 82.0187C10 86.37 10 92.0633 10 103.45Z" stroke="#FFC700" stroke-width="10.9167" stroke-linecap="round" stroke-linejoin="round"/>
</svg>
