<svg width="131" height="131" viewBox="0 0 131 131" fill="none" xmlns="http://www.w3.org/2000/svg">
<path d="M91.0859 17.3984C80.3398 17.3984 70.9959 22.2444 65.5 30.3654C60.0041 22.2444 50.6602 17.3984 39.9141 17.3984C31.774 17.4079 23.97 20.6457 18.2141 26.4016C12.4582 32.1575 9.22042 39.9615 9.21094 48.1016C9.21094 63.0438 18.5242 78.5949 36.8949 94.3149C45.3129 101.488 54.406 107.829 64.0467 113.248C64.4935 113.489 64.9928 113.614 65.5 113.614C66.0072 113.614 66.5065 113.489 66.9533 113.248C76.594 107.829 85.687 101.488 94.1051 94.3149C112.476 78.5949 121.789 63.0438 121.789 48.1016C121.78 39.9615 118.542 32.1575 112.786 26.4016C107.03 20.6457 99.226 17.4079 91.0859 17.3984ZM65.5 107.006C57.1027 102.16 15.3516 76.6145 15.3516 48.1016C15.3583 41.5893 17.9483 35.3456 22.5532 30.7407C27.1581 26.1358 33.4018 23.5458 39.9141 23.5391C50.2917 23.5391 59.0063 29.081 62.66 38.0054C62.8913 38.5685 63.2848 39.0501 63.7905 39.3891C64.2962 39.7281 64.8912 39.909 65.5 39.909C66.1088 39.909 66.7038 39.7281 67.2095 39.3891C67.7152 39.0501 68.1087 38.5685 68.34 38.0054C71.9937 29.081 80.7083 23.5391 91.0859 23.5391C97.5982 23.5458 103.842 26.1358 108.447 30.7407C113.052 35.3456 115.642 41.5893 115.648 48.1016C115.648 76.6145 73.8973 102.16 65.5 107.006Z" fill="#797979"/>
</svg>
