<svg width="122" height="122" viewBox="0 0 122 122" fill="none" xmlns="http://www.w3.org/2000/svg">
<g clip-path="url(#clip0_34_91)">
<path fill-rule="evenodd" clip-rule="evenodd" d="M81.3333 71.1667C88.0742 71.1667 94.5391 73.8446 99.3056 78.6111C104.072 83.3777 106.75 89.8425 106.75 96.5834V106.75C106.75 108.098 106.214 109.391 105.261 110.345C104.308 111.298 103.015 111.833 101.667 111.833C100.318 111.833 99.0255 111.298 98.0722 110.345C97.1189 109.391 96.5833 108.098 96.5833 106.75V96.5834C96.5833 92.5389 94.9766 88.66 92.1167 85.8C89.2568 82.9401 85.3779 81.3334 81.3333 81.3334H40.6667C36.6221 81.3334 32.7432 82.9401 29.8833 85.8C27.0234 88.66 25.4167 92.5389 25.4167 96.5834V106.75C25.4167 108.098 24.8811 109.391 23.9278 110.345C22.9745 111.298 21.6815 111.833 20.3333 111.833C18.9851 111.833 17.6922 111.298 16.7389 110.345C15.7856 109.391 15.25 108.098 15.25 106.75V96.5834C15.25 89.8425 17.9278 83.3777 22.6944 78.6111C27.4609 73.8446 33.9257 71.1667 40.6667 71.1667H81.3333ZM108.854 46.1618C109.767 45.2405 110.997 44.7027 112.294 44.6588C113.59 44.6148 114.854 45.0679 115.827 45.9253C116.8 46.7827 117.408 47.9796 117.528 49.2709C117.647 50.5623 117.269 51.8505 116.469 52.8718L116.042 53.3547L101.667 67.7304C100.791 68.6056 99.6268 69.1314 98.3914 69.2091C97.156 69.2868 95.9347 68.911 94.9567 68.1523L94.4788 67.7304L87.291 60.5426C86.3696 59.6299 85.8319 58.3996 85.7879 57.1035C85.744 55.8073 86.197 54.5434 87.0544 53.5704C87.9118 52.5974 89.1087 51.9888 90.4001 51.8694C91.6915 51.7499 92.9796 52.1285 94.001 52.9277L94.4788 53.3497L98.0727 56.9487L108.854 46.1618ZM61 10.1667C67.7409 10.1667 74.2057 12.8446 78.9723 17.6111C83.7388 22.3777 86.4167 28.8425 86.4167 35.5834C86.4167 42.3243 83.7388 48.7892 78.9723 53.5557C74.2057 58.3223 67.7409 61.0001 61 61.0001C54.2591 61.0001 47.7943 58.3223 43.0277 53.5557C38.2612 48.7892 35.5833 42.3243 35.5833 35.5834C35.5833 28.8425 38.2612 22.3777 43.0277 17.6111C47.7943 12.8446 54.2591 10.1667 61 10.1667ZM61 20.3334C58.9973 20.3334 57.0143 20.7279 55.1641 21.4943C53.3139 22.2606 51.6327 23.3839 50.2166 24.8C48.8005 26.2161 47.6772 27.8973 46.9108 29.7475C46.1444 31.5977 45.75 33.5808 45.75 35.5834C45.75 37.5861 46.1444 39.5691 46.9108 41.4193C47.6772 43.2696 48.8005 44.9507 50.2166 46.3668C51.6327 47.7829 53.3139 48.9062 55.1641 49.6726C57.0143 50.439 58.9973 50.8334 61 50.8334C65.0445 50.8334 68.9234 49.2267 71.7834 46.3668C74.6433 43.5069 76.25 39.628 76.25 35.5834C76.25 31.5389 74.6433 27.66 71.7834 24.8C68.9234 21.9401 65.0445 20.3334 61 20.3334Z" fill="#797979"/>
</g>
<defs>
<clipPath id="clip0_34_91">
<rect width="122" height="122" fill="white"/>
</clipPath>
</defs>
</svg>
