<svg width="100" height="100" viewBox="0 0 100 100" fill="none" xmlns="http://www.w3.org/2000/svg">
<g clip-path="url(#clip0_34_95)">
<path d="M14.65 85.3499C9.87452 80.7376 6.06541 75.2203 3.44496 69.1201C0.82451 63.0199 -0.554801 56.4589 -0.612492 49.82C-0.670183 43.181 0.594902 36.597 3.10895 30.4522C5.62299 24.3074 9.33565 18.7248 14.0303 14.0302C18.7249 9.33552 24.3075 5.62287 30.4523 3.10882C36.5971 0.59478 43.1811 -0.670305 49.8201 -0.612614C56.4591 -0.554923 63.0201 0.824388 69.1203 3.44484C75.2205 6.06529 80.7377 9.8744 85.35 14.6499C94.4579 24.08 99.4977 36.7101 99.3837 49.82C99.2698 62.9298 94.0114 75.4704 84.741 84.7408C75.4706 94.0112 62.9299 99.2697 49.8201 99.3836C36.7103 99.4975 24.0801 94.4578 14.65 85.3499ZM78.3 78.2999C85.8057 70.7943 90.0223 60.6145 90.0223 49.9999C90.0223 39.3853 85.8057 29.2055 78.3 21.6999C70.7944 14.1943 60.6146 9.97766 50 9.97766C39.3855 9.97766 29.2057 14.1943 21.7 21.6999C14.1944 29.2055 9.97779 39.3853 9.97779 49.9999C9.97779 60.6145 14.1944 70.7943 21.7 78.2999C29.2057 85.8055 39.3855 90.0221 50 90.0222C60.6146 90.0221 70.7944 85.8055 78.3 78.2999ZM45 24.9999H55V54.9999H45V24.9999ZM45 64.9999H55V74.9999H45V64.9999Z" fill="#797979"/>
</g>
<defs>
<clipPath id="clip0_34_95">
<rect width="100" height="100" fill="white"/>
</clipPath>
</defs>
</svg>
