<svg width="50" height="50" viewBox="0 0 50 50" fill="none" xmlns="http://www.w3.org/2000/svg">
<path d="M43.75 0H6.25C4.5924 0 3.00269 0.65848 1.83058 1.83058C0.65848 3.00269 0 4.5924 0 6.25L0 43.75C0 45.4076 0.65848 46.9973 1.83058 48.1694C3.00269 49.3415 4.5924 50 6.25 50H43.75C45.4076 50 46.9973 49.3415 48.1694 48.1694C49.3415 46.9973 50 45.4076 50 43.75V6.25C50 4.5924 49.3415 3.00269 48.1694 1.83058C46.9973 0.65848 45.4076 0 43.75 0ZM3.125 12.0531C3.125 10.575 4.525 9.375 6.25 9.375H43.75C45.475 9.375 46.875 10.575 46.875 12.0531V44.1969C46.875 45.675 45.475 46.875 43.75 46.875H6.25C4.525 46.875 3.125 45.675 3.125 44.1969V12.0531Z" fill="#85B6FF"/>
<path d="M20.3125 21.875C21.1413 21.875 21.9362 21.5458 22.5222 20.9597C23.1083 20.3737 23.4375 19.5788 23.4375 18.75C23.4375 17.9212 23.1083 17.1263 22.5222 16.5403C21.9362 15.9542 21.1413 15.625 20.3125 15.625C19.4837 15.625 18.6888 15.9542 18.1028 16.5403C17.5167 17.1263 17.1875 17.9212 17.1875 18.75C17.1875 19.5788 17.5167 20.3737 18.1028 20.9597C18.6888 21.5458 19.4837 21.875 20.3125 21.875ZM29.6875 21.875C30.5163 21.875 31.3112 21.5458 31.8972 20.9597C32.4833 20.3737 32.8125 19.5788 32.8125 18.75C32.8125 17.9212 32.4833 17.1263 31.8972 16.5403C31.3112 15.9542 30.5163 15.625 29.6875 15.625C28.8587 15.625 28.0638 15.9542 27.4778 16.5403C26.8917 17.1263 26.5625 17.9212 26.5625 18.75C26.5625 19.5788 26.8917 20.3737 27.4778 20.9597C28.0638 21.5458 28.8587 21.875 29.6875 21.875ZM39.0625 21.875C39.8913 21.875 40.6862 21.5458 41.2722 20.9597C41.8583 20.3737 42.1875 19.5788 42.1875 18.75C42.1875 17.9212 41.8583 17.1263 41.2722 16.5403C40.6862 15.9542 39.8913 15.625 39.0625 15.625C38.2337 15.625 37.4388 15.9542 36.8528 16.5403C36.2667 17.1263 35.9375 17.9212 35.9375 18.75C35.9375 19.5788 36.2667 20.3737 36.8528 20.9597C37.4388 21.5458 38.2337 21.875 39.0625 21.875ZM10.9375 31.25C11.7663 31.25 12.5612 30.9208 13.1472 30.3347C13.7333 29.7487 14.0625 28.9538 14.0625 28.125C14.0625 27.2962 13.7333 26.5013 13.1472 25.9153C12.5612 25.3292 11.7663 25 10.9375 25C10.1087 25 9.31384 25.3292 8.72779 25.9153C8.14174 26.5013 7.8125 27.2962 7.8125 28.125C7.8125 28.9538 8.14174 29.7487 8.72779 30.3347C9.31384 30.9208 10.1087 31.25 10.9375 31.25ZM20.3125 31.25C21.1413 31.25 21.9362 30.9208 22.5222 30.3347C23.1083 29.7487 23.4375 28.9538 23.4375 28.125C23.4375 27.2962 23.1083 26.5013 22.5222 25.9153C21.9362 25.3292 21.1413 25 20.3125 25C19.4837 25 18.6888 25.3292 18.1028 25.9153C17.5167 26.5013 17.1875 27.2962 17.1875 28.125C17.1875 28.9538 17.5167 29.7487 18.1028 30.3347C18.6888 30.9208 19.4837 31.25 20.3125 31.25ZM29.6875 31.25C30.5163 31.25 31.3112 30.9208 31.8972 30.3347C32.4833 29.7487 32.8125 28.9538 32.8125 28.125C32.8125 27.2962 32.4833 26.5013 31.8972 25.9153C31.3112 25.3292 30.5163 25 29.6875 25C28.8587 25 28.0638 25.3292 27.4778 25.9153C26.8917 26.5013 26.5625 27.2962 26.5625 28.125C26.5625 28.9538 26.8917 29.7487 27.4778 30.3347C28.0638 30.9208 28.8587 31.25 29.6875 31.25ZM39.0625 31.25C39.8913 31.25 40.6862 30.9208 41.2722 30.3347C41.8583 29.7487 42.1875 28.9538 42.1875 28.125C42.1875 27.2962 41.8583 26.5013 41.2722 25.9153C40.6862 25.3292 39.8913 25 39.0625 25C38.2337 25 37.4388 25.3292 36.8528 25.9153C36.2667 26.5013 35.9375 27.2962 35.9375 28.125C35.9375 28.9538 36.2667 29.7487 36.8528 30.3347C37.4388 30.9208 38.2337 31.25 39.0625 31.25ZM10.9375 40.625C11.7663 40.625 12.5612 40.2958 13.1472 39.7097C13.7333 39.1237 14.0625 38.3288 14.0625 37.5C14.0625 36.6712 13.7333 35.8763 13.1472 35.2903C12.5612 34.7042 11.7663 34.375 10.9375 34.375C10.1087 34.375 9.31384 34.7042 8.72779 35.2903C8.14174 35.8763 7.8125 36.6712 7.8125 37.5C7.8125 38.3288 8.14174 39.1237 8.72779 39.7097C9.31384 40.2958 10.1087 40.625 10.9375 40.625ZM20.3125 40.625C21.1413 40.625 21.9362 40.2958 22.5222 39.7097C23.1083 39.1237 23.4375 38.3288 23.4375 37.5C23.4375 36.6712 23.1083 35.8763 22.5222 35.2903C21.9362 34.7042 21.1413 34.375 20.3125 34.375C19.4837 34.375 18.6888 34.7042 18.1028 35.2903C17.5167 35.8763 17.1875 36.6712 17.1875 37.5C17.1875 38.3288 17.5167 39.1237 18.1028 39.7097C18.6888 40.2958 19.4837 40.625 20.3125 40.625ZM29.6875 40.625C30.5163 40.625 31.3112 40.2958 31.8972 39.7097C32.4833 39.1237 32.8125 38.3288 32.8125 37.5C32.8125 36.6712 32.4833 35.8763 31.8972 35.2903C31.3112 34.7042 30.5163 34.375 29.6875 34.375C28.8587 34.375 28.0638 34.7042 27.4778 35.2903C26.8917 35.8763 26.5625 36.6712 26.5625 37.5C26.5625 38.3288 26.8917 39.1237 27.4778 39.7097C28.0638 40.2958 28.8587 40.625 29.6875 40.625Z" fill="#85B6FF"/>
</svg>
