<svg width="50" height="50" viewBox="0 0 50 50" fill="none" xmlns="http://www.w3.org/2000/svg">
<path d="M18.2295 20.8333C18.2295 19.0376 18.9428 17.3154 20.2126 16.0456C21.4824 14.7759 23.2046 14.0625 25.0003 14.0625C26.7961 14.0625 28.5182 14.7759 29.788 16.0456C31.0578 17.3154 31.7712 19.0376 31.7712 20.8333C31.7712 22.6291 31.0578 24.3513 29.788 25.621C28.5182 26.8908 26.7961 27.6042 25.0003 27.6042C23.2046 27.6042 21.4824 26.8908 20.2126 25.621C18.9428 24.3513 18.2295 22.6291 18.2295 20.8333Z" fill="#85B6FF"/>
<path fill-rule="evenodd" clip-rule="evenodd" d="M7.86205 18.4937C8.20765 14.3054 10.1155 10.4001 13.2068 7.55303C16.2981 4.706 20.3469 3.12541 24.5496 3.125H25.4495C29.6522 3.12541 33.701 4.706 36.7923 7.55303C39.8836 10.4001 41.7915 14.3054 42.1371 18.4937C42.5231 23.1698 41.0794 27.8131 38.11 31.4458L28.1245 43.6583C27.7461 44.1216 27.2694 44.4949 26.7289 44.7512C26.1884 45.0075 25.5977 45.1405 24.9995 45.1405C24.4014 45.1405 23.8107 45.0075 23.2702 44.7512C22.7297 44.4949 22.253 44.1216 21.8745 43.6583L11.8912 31.4458C8.92102 27.8134 7.47654 23.17 7.86205 18.4937ZM24.9995 10.9375C22.375 10.9375 19.858 11.9801 18.0021 13.8359C16.1463 15.6918 15.1037 18.2088 15.1037 20.8333C15.1037 23.4579 16.1463 25.9749 18.0021 27.8307C19.858 29.6866 22.375 30.7292 24.9995 30.7292C27.6241 30.7292 30.1411 29.6866 31.997 27.8307C33.8528 25.9749 34.8954 23.4579 34.8954 20.8333C34.8954 18.2088 33.8528 15.6918 31.997 13.8359C30.1411 11.9801 27.6241 10.9375 24.9995 10.9375Z" fill="#85B6FF"/>
</svg>
