<svg width="70" height="70" viewBox="0 0 70 70" fill="none" xmlns="http://www.w3.org/2000/svg">
<path d="M19.8332 37.9163L28.2915 46.3747C28.8263 46.9094 29.0936 47.59 29.0936 48.4163C29.0936 49.2427 28.8263 49.9233 28.2915 50.458C27.7568 50.9927 27.0763 51.2601 26.2499 51.2601C25.4235 51.2601 24.7429 50.9927 24.2082 50.458L10.7915 37.0413C10.4999 36.7497 10.2928 36.4337 10.1703 36.0934C10.0478 35.7531 9.98848 35.3886 9.99237 34.9997C9.99237 34.6108 10.0536 34.2462 10.1761 33.9059C10.2986 33.5656 10.5038 33.2497 10.7915 32.958L24.2082 19.5413C24.7429 19.0066 25.4235 18.7393 26.2499 18.7393C27.0763 18.7393 27.7568 19.0066 28.2915 19.5413C28.8263 20.0761 29.0936 20.7566 29.0936 21.583C29.0936 22.4094 28.8263 23.09 28.2915 23.6247L19.8332 32.083H55.4165V23.333C55.4165 22.5066 55.6965 21.8134 56.2565 21.2534C56.8165 20.6934 57.5088 20.4144 58.3332 20.4163C59.1596 20.4163 59.8528 20.6963 60.4128 21.2563C60.9728 21.8163 61.2518 22.5086 61.2499 23.333V32.083C61.2499 33.6872 60.6782 35.0609 59.5349 36.2043C58.3915 37.3476 57.0188 37.9183 55.4165 37.9163H19.8332Z" fill="black"/>
</svg>
