<svg width="122" height="122" viewBox="0 0 122 122" fill="none" xmlns="http://www.w3.org/2000/svg">
<path d="M84.8281 16.2031C74.8203 16.2031 66.1183 20.7162 61 28.2792C55.8817 20.7162 47.1797 16.2031 37.1719 16.2031C29.5911 16.212 22.3232 19.2273 16.9628 24.5878C11.6023 29.9482 8.58695 37.2161 8.57812 44.7969C8.57813 58.7125 17.2516 73.1952 34.3602 87.8352C42.1998 94.5155 50.6682 100.421 59.6466 105.468C60.0627 105.692 60.5276 105.809 61 105.809C61.4724 105.809 61.9373 105.692 62.3534 105.468C71.3318 100.421 79.8002 94.5155 87.6398 87.8352C104.748 73.1952 113.422 58.7125 113.422 44.7969C113.413 37.2161 110.398 29.9482 105.037 24.5878C99.6768 19.2273 92.409 16.212 84.8281 16.2031ZM61 99.654C53.1796 95.1409 14.2969 71.3509 14.2969 44.7969C14.3032 38.732 16.7152 32.9173 21.0038 28.6288C25.2923 24.3402 31.107 21.9282 37.1719 21.9219C46.8366 21.9219 54.9524 27.083 58.3551 35.3943C58.5705 35.9187 58.937 36.3673 59.4079 36.683C59.8789 36.9987 60.433 37.1672 61 37.1672C61.567 37.1672 62.1211 36.9987 62.5921 36.683C63.063 36.3673 63.4295 35.9187 63.6449 35.3943C67.0476 27.083 75.1634 21.9219 84.8281 21.9219C90.893 21.9282 96.7077 24.3402 100.996 28.6288C105.285 32.9173 107.697 38.732 107.703 44.7969C107.703 71.3509 68.8204 95.1409 61 99.654Z" fill="#FFC700"/>
</svg>
