<svg width="75" height="88" viewBox="0 0 75 88" fill="none" xmlns="http://www.w3.org/2000/svg">
<path d="M74.9999 70.8333V74.9999H4.00543e-05V70.8333L8.33336 62.4999V37.5C8.33336 24.5833 16.7917 13.2083 29.1667 9.54169V8.33336C29.1667 6.12322 30.0446 4.00361 31.6074 2.44081C33.1702 0.87801 35.2898 3.81469e-05 37.5 3.81469e-05C39.7101 3.81469e-05 41.8297 0.87801 43.3925 2.44081C44.9553 4.00361 45.8333 6.12322 45.8333 8.33336V9.54169C58.2083 13.2083 66.6666 24.5833 66.6666 37.5V62.4999L74.9999 70.8333ZM45.8333 79.1666C45.8333 81.3767 44.9553 83.4963 43.3925 85.0591C41.8297 86.6219 39.7101 87.4999 37.5 87.4999C35.2898 87.4999 33.1702 86.6219 31.6074 85.0591C30.0446 83.4963 29.1667 81.3767 29.1667 79.1666" fill="#9747FF"/>
</svg>
