<svg width="120" height="120" viewBox="0 0 120 120" fill="none" xmlns="http://www.w3.org/2000/svg">
<path d="M34.0002 65L48.5002 79.5C49.4169 80.4167 49.8752 81.5833 49.8752 83C49.8752 84.4167 49.4169 85.5833 48.5002 86.5C47.5835 87.4167 46.4169 87.875 45.0002 87.875C43.5835 87.875 42.4169 87.4167 41.5002 86.5L18.5002 63.5C18.0002 63 17.6452 62.4583 17.4352 61.875C17.2252 61.2917 17.1235 60.6667 17.1302 60C17.1302 59.3333 17.2352 58.7083 17.4452 58.125C17.6552 57.5417 18.0069 57 18.5002 56.5L41.5002 33.5C42.4169 32.5833 43.5835 32.125 45.0002 32.125C46.4169 32.125 47.5835 32.5833 48.5002 33.5C49.4169 34.4167 49.8752 35.5833 49.8752 37C49.8752 38.4167 49.4169 39.5833 48.5002 40.5L34.0002 55H95.0002V40C95.0002 38.5833 95.4802 37.395 96.4402 36.435C97.4002 35.475 98.5869 34.9967 100 35C101.417 35 102.605 35.48 103.565 36.44C104.525 37.4 105.004 38.5867 105 40V55C105 57.75 104.02 60.105 102.06 62.065C100.1 64.025 97.7468 65.0033 95.0002 65H34.0002Z" fill="#9747FF"/>
</svg>
