<svg width="124" height="124" viewBox="0 0 124 124" fill="none" xmlns="http://www.w3.org/2000/svg">
<path d="M93.884 30.1403C89.759 26.0015 84.8635 22.7104 79.4738 20.4528C73.9459 18.1303 68.0081 16.9402 62.0121 16.9532H61.8062C49.7332 17.0017 38.4352 21.7243 29.9828 30.2614C21.5184 38.7985 16.9047 50.1329 16.9531 62.206C16.9895 69.5079 18.8059 76.7614 22.2207 83.1673L22.7656 84.1845V101.234H39.8156L40.8328 101.779C47.2387 105.194 54.4922 107.011 61.7941 107.047H62C73.9883 107.047 85.25 102.421 93.7387 94.0173C102.264 85.565 106.998 74.2669 107.071 62.206C107.095 56.0786 105.921 50.145 103.571 44.5505C101.312 39.1616 98.0215 34.2664 93.884 30.1403ZM37.7812 67.8126C36.2602 67.7816 34.812 67.1555 33.7472 66.0689C32.6825 64.9822 32.0862 63.5215 32.0862 62.0001C32.0862 60.4788 32.6825 59.018 33.7472 57.9314C34.812 56.8447 36.2602 56.2187 37.7812 56.1876C39.3023 56.2187 40.7505 56.8447 41.8152 57.9314C42.88 59.018 43.4763 60.4788 43.4763 62.0001C43.4763 63.5215 42.88 64.9822 41.8152 66.0689C40.7505 67.1555 39.3023 67.7816 37.7812 67.8126ZM62 67.8126C60.479 67.7816 59.0307 67.1555 57.966 66.0689C56.9013 64.9822 56.3049 63.5215 56.3049 62.0001C56.3049 60.4788 56.9013 59.018 57.966 57.9314C59.0307 56.8447 60.479 56.2187 62 56.1876C63.521 56.2187 64.9693 56.8447 66.034 57.9314C67.0987 59.018 67.6951 60.4788 67.6951 62.0001C67.6951 63.5215 67.0987 64.9822 66.034 66.0689C64.9693 67.1555 63.521 67.7816 62 67.8126ZM86.2187 67.8126C84.6977 67.7816 83.2495 67.1555 82.1847 66.0689C81.12 64.9822 80.5237 63.5215 80.5237 62.0001C80.5237 60.4788 81.12 59.018 82.1847 57.9314C83.2495 56.8447 84.6977 56.2187 86.2187 56.1876C87.7398 56.2187 89.188 56.8447 90.2528 57.9314C91.3175 59.018 91.9138 60.4788 91.9138 62.0001C91.9138 63.5215 91.3175 64.9822 90.2528 66.0689C89.188 67.1555 87.7398 67.7816 86.2187 67.8126Z" fill="#699BF7" fill-opacity="0.15"/>
<path d="M80.4062 62C80.4062 63.5416 81.0186 65.02 82.1087 66.1101C83.1987 67.2001 84.6772 67.8125 86.2188 67.8125C87.7603 67.8125 89.2388 67.2001 90.3288 66.1101C91.4189 65.02 92.0312 63.5416 92.0312 62C92.0312 60.4584 91.4189 58.98 90.3288 57.8899C89.2388 56.7999 87.7603 56.1875 86.2188 56.1875C84.6772 56.1875 83.1987 56.7999 82.1087 57.8899C81.0186 58.98 80.4062 60.4584 80.4062 62ZM31.9688 62C31.9688 63.5416 32.5811 65.02 33.6712 66.1101C34.7612 67.2001 36.2397 67.8125 37.7812 67.8125C39.3228 67.8125 40.8013 67.2001 41.8913 66.1101C42.9814 65.02 43.5938 63.5416 43.5938 62C43.5938 60.4584 42.9814 58.98 41.8913 57.8899C40.8013 56.7999 39.3228 56.1875 37.7812 56.1875C36.2397 56.1875 34.7612 56.7999 33.6712 57.8899C32.5811 58.98 31.9688 60.4584 31.9688 62Z" fill="#699BF7"/>
<path d="M112.036 40.9781C109.299 34.4754 105.376 28.6387 100.375 23.6254C95.4084 18.6411 89.5129 14.6792 83.0219 11.9641C76.3617 9.1668 69.2898 7.75 62 7.75H61.7578C54.4195 7.78633 47.3113 9.23945 40.627 12.0973C34.1915 14.8403 28.3512 18.8092 23.4316 23.7828C18.4789 28.784 14.5918 34.5965 11.9035 41.075C9.11836 47.7836 7.71367 54.916 7.75 62.2543C7.79109 70.6639 9.78064 78.9496 13.5625 86.4609V104.867C13.5625 106.345 14.1494 107.761 15.194 108.806C16.2386 109.851 17.6555 110.438 19.1328 110.438H37.5512C45.0625 114.219 53.3482 116.209 61.7578 116.25H62.0121C69.2656 116.25 76.3012 114.845 82.925 112.096C89.3833 109.414 95.2568 105.498 100.217 100.568C105.218 95.6156 109.154 89.8273 111.903 83.373C114.761 76.6887 116.214 69.5805 116.25 62.2422C116.286 54.8676 114.857 47.7109 112.036 40.9781ZM93.7387 94.0172C85.25 102.421 73.9883 107.047 62 107.047H61.7941C54.4922 107.011 47.2387 105.194 40.8328 101.779L39.8156 101.234H22.7656V84.1844L22.2207 83.1672C18.8059 76.7613 16.9895 69.5078 16.9531 62.2059C16.9047 50.1328 21.5184 38.7984 29.9828 30.2613C38.4352 21.7242 49.7332 17.0016 61.8063 16.9531H62.0121C68.0668 16.9531 73.9398 18.1277 79.4738 20.4527C84.8746 22.7172 89.7184 25.9746 93.884 30.1402C98.0375 34.2937 101.307 39.1496 103.571 44.5504C105.921 50.1449 107.095 56.0785 107.071 62.2059C106.998 74.2668 102.264 85.5648 93.7387 94.0172Z" fill="#699BF7"/>
<path d="M56.1875 62C56.1875 63.5416 56.7999 65.02 57.8899 66.1101C58.98 67.2001 60.4584 67.8125 62 67.8125C63.5416 67.8125 65.02 67.2001 66.1101 66.1101C67.2001 65.02 67.8125 63.5416 67.8125 62C67.8125 60.4584 67.2001 58.98 66.1101 57.8899C65.02 56.7999 63.5416 56.1875 62 56.1875C60.4584 56.1875 58.98 56.7999 57.8899 57.8899C56.7999 58.98 56.1875 60.4584 56.1875 62Z" fill="#699BF7"/>
</svg>
