<svg width="80" height="80" viewBox="0 0 80 80" fill="none" xmlns="http://www.w3.org/2000/svg">
<path d="M16.8419 21.0532H12.6314C10.398 21.0532 8.25605 21.9404 6.6768 23.5197C5.09756 25.0989 4.21034 27.2408 4.21034 29.4742V67.3688C4.21034 69.6022 5.09756 71.7441 6.6768 73.3234C8.25605 74.9026 10.398 75.7898 12.6314 75.7898H50.5259C52.7593 75.7898 54.9013 74.9026 56.4805 73.3234C58.0597 71.7441 58.947 69.6022 58.947 67.3688V63.1583" stroke="#699BF7" stroke-width="8.33333" stroke-linecap="round" stroke-linejoin="round"/>
<path d="M54.7366 12.6323L67.3681 25.2638M73.1997 19.306C74.858 17.6477 75.7896 15.3985 75.7896 13.0534C75.7896 10.7082 74.858 8.45905 73.1997 6.80075C71.5414 5.14246 69.2923 4.21084 66.9471 4.21084C64.6019 4.21084 62.3528 5.14246 60.6945 6.80075L25.2631 42.1059V54.7374H37.8946L73.1997 19.306Z" stroke="#699BF7" stroke-width="8.33333" stroke-linecap="round" stroke-linejoin="round"/>
</svg>
