<svg width="30" height="26" viewBox="0 0 30 26" fill="none" xmlns="http://www.w3.org/2000/svg">
<path d="M25.0034 0C24.322 11.7451 12.8655 19.5377 7.42992 22.969L10.9574 25.9995C10.9574 25.9995 13.1942 26.0476 16.2568 25.0695C21.508 23.402 29.1804 18.6879 29.7095 15.906C30.4871 11.8573 26.3343 12.7392 25.3963 9.54037C24.9072 7.84875 27.7774 4.64993 25.0034 0ZM5.29737 3.13469C5.29737 3.13469 3.253 1.04222 1.73777 0.088188C0.984159 1.50722 0.447017 3.0465 0.182452 4.63389C-0.290558 7.42385 0.182451 11.3843 1.29683 14.3346C1.47321 14.7916 2.13061 14.7194 2.20276 14.2384C3.16482 7.89686 5.29737 3.13469 5.29737 3.13469Z" fill="#E2A610"/>
</svg>
