<svg width="36" height="29" viewBox="0 0 36 29" fill="none" xmlns="http://www.w3.org/2000/svg">
<path d="M22.5855 27.7851C27.8443 26.6174 34.694 21.3978 35.7364 18.8272C36.3477 17.3224 33.299 14.9712 32.4839 14.0229C30.6187 11.8598 31.371 10.794 32.0921 8.21553C32.915 5.2844 30.9635 2.04762 28.197 0.777986C25.4304 -0.491647 22.1231 -0.0919478 19.3409 1.14634C16.5586 2.38462 14.184 4.37528 11.8563 6.33459C10.1556 5.26089 7.44393 0.519357 3.05508 3.59939C0.0220669 5.72329 -0.252238 10.3473 0.139624 14.0386C1.05658 22.5577 3.15696 26.9779 7.11477 28.1691C12.1149 29.6739 17.648 28.8823 22.5855 27.7851Z" fill="#FFCA28"/>
</svg>
