<svg width="46" height="46" viewBox="0 0 46 46" fill="none" xmlns="http://www.w3.org/2000/svg">
<path d="M14.1283 20.0433L17.0869 17.0868L23 22.9998L28.9151 17.0868L31.8717 20.0433L23 28.9129L14.1283 20.0433Z" fill="#85B6FF"/>
<path fill-rule="evenodd" clip-rule="evenodd" d="M0 22.9999C0 10.2977 10.2977 0 22.9999 0C35.7021 0 45.9998 10.2977 45.9998 22.9999C45.9998 35.7021 35.7021 45.9998 22.9999 45.9998C10.2977 45.9998 0 35.7021 0 22.9999ZM22.9999 41.818C20.5287 41.818 18.0817 41.3313 15.7985 40.3856C13.5154 39.4399 11.4409 38.0538 9.6935 36.3063C7.94608 34.5589 6.55995 32.4844 5.61425 30.2013C4.66855 27.9182 4.1818 25.4711 4.1818 22.9999C4.1818 20.5287 4.66855 18.0817 5.61425 15.7985C6.55995 13.5154 7.94608 11.4409 9.6935 9.6935C11.4409 7.94608 13.5154 6.55995 15.7985 5.61425C18.0817 4.66855 20.5287 4.1818 22.9999 4.1818C27.9908 4.1818 32.7772 6.16442 36.3063 9.6935C39.8354 13.2226 41.818 18.009 41.818 22.9999C41.818 27.9908 39.8354 32.7772 36.3063 36.3063C32.7772 39.8354 27.9908 41.818 22.9999 41.818Z" fill="#85B6FF"/>
</svg>
