<svg width="100" height="100" viewBox="0 0 100 100" fill="none" xmlns="http://www.w3.org/2000/svg">
<path d="M81.25 12.5H18.75C17.0924 12.5 15.5027 13.1585 14.3306 14.3306C13.1585 15.5027 12.5 17.0924 12.5 18.75V81.25C12.5 82.9076 13.1585 84.4973 14.3306 85.6694C15.5027 86.8415 17.0924 87.5 18.75 87.5H81.25C82.9076 87.5 84.4973 86.8415 85.6694 85.6694C86.8415 84.4973 87.5 82.9076 87.5 81.25V18.75C87.5 17.0924 86.8415 15.5027 85.6694 14.3306C84.4973 13.1585 82.9076 12.5 81.25 12.5ZM70.9609 66.5391C71.2513 66.8294 71.4816 67.1741 71.6387 67.5534C71.7959 67.9328 71.8767 68.3394 71.8767 68.75C71.8767 69.1606 71.7959 69.5672 71.6387 69.9466C71.4816 70.3259 71.2513 70.6706 70.9609 70.9609C70.6706 71.2513 70.3259 71.4816 69.9466 71.6387C69.5672 71.7959 69.1606 71.8767 68.75 71.8767C68.3394 71.8767 67.9328 71.7959 67.5534 71.6387C67.1741 71.4816 66.8294 71.2513 66.5391 70.9609L50 54.418L33.4609 70.9609C32.8746 71.5473 32.0793 71.8767 31.25 71.8767C30.4207 71.8767 29.6254 71.5473 29.0391 70.9609C28.4527 70.3746 28.1233 69.5793 28.1233 68.75C28.1233 67.9207 28.4527 67.1254 29.0391 66.5391L45.582 50L29.0391 33.4609C28.4527 32.8746 28.1233 32.0793 28.1233 31.25C28.1233 30.4207 28.4527 29.6254 29.0391 29.0391C29.6254 28.4527 30.4207 28.1233 31.25 28.1233C32.0793 28.1233 32.8746 28.4527 33.4609 29.0391L50 45.582L66.5391 29.0391C67.1254 28.4527 67.9207 28.1233 68.75 28.1233C69.5793 28.1233 70.3746 28.4527 70.9609 29.0391C71.5473 29.6254 71.8767 30.4207 71.8767 31.25C71.8767 32.0793 71.5473 32.8746 70.9609 33.4609L54.418 50L70.9609 66.5391Z" fill="#9747FF"/>
</svg>
