<svg width="74" height="74" viewBox="0 0 74 74" fill="none" xmlns="http://www.w3.org/2000/svg">
<path d="M60.4333 64.75L41.0083 45.325C39.4667 46.5583 37.6937 47.5347 35.6896 48.2542C33.6854 48.9736 31.5528 49.3333 29.2917 49.3333C23.6903 49.3333 18.9502 47.3929 15.0713 43.512C11.1925 39.6311 9.25206 34.891 9.25 29.2917C9.25 23.6903 11.1904 18.9502 15.0713 15.0713C18.9522 11.1925 23.6923 9.25206 29.2917 9.25C34.8931 9.25 39.6342 11.1904 43.5151 15.0713C47.396 18.9522 49.3354 23.6923 49.3333 29.2917C49.3333 31.5528 48.9736 33.6854 48.2542 35.6896C47.5347 37.6937 46.5583 39.4667 45.325 41.0083L64.75 60.4333L60.4333 64.75ZM29.2917 43.1667C33.1458 43.1667 36.4224 41.8182 39.1213 39.1213C41.8203 36.4244 43.1687 33.1479 43.1667 29.2917C43.1667 25.4375 41.8182 22.162 39.1213 19.4651C36.4244 16.7682 33.1479 15.4187 29.2917 15.4167C25.4375 15.4167 22.162 16.7661 19.4651 19.4651C16.7682 22.164 15.4187 25.4396 15.4167 29.2917C15.4167 33.1458 16.7661 36.4224 19.4651 39.1213C22.164 41.8203 25.4396 43.1687 29.2917 43.1667Z" fill="black"/>
</svg>
